<svg viewBox="0 0 190 272" xmlns="http://www.w3.org/2000/svg">
  <path 
    d="M118,225 L117,226 L114,226 L113,227 L112,227 L111,228 L110,228 L105,233 L105,234 L104,235 L104,237 L103,238 L103,247 L104,248 L104,249 L105,250 L105,251 L106,252 L106,253 L109,256 L110,256 L112,258 L114,258 L115,259 L124,259 L125,258 L127,258 L128,257 L129,257 L134,252 L134,251 L135,250 L135,249 L136,248 L136,245 L137,244 L137,241 L136,240 L136,237 L135,236 L135,235 L134,234 L134,233 L132,231 L132,230 L131,229 L130,229 L128,227 L126,227 L125,226 L123,226 L122,225 Z M51,225 L50,226 L47,226 L46,227 L45,227 L44,228 L43,228 L38,233 L38,234 L37,235 L37,236 L36,237 L36,247 L37,248 L37,250 L39,252 L39,253 L43,257 L44,257 L45,258 L47,258 L48,259 L57,259 L58,258 L60,258 L61,257 L62,257 L67,252 L67,251 L68,250 L68,249 L69,248 L69,244 L70,243 L70,242 L69,241 L69,237 L68,236 L68,235 L67,234 L67,233 L62,228 L61,228 L60,227 L59,227 L58,226 L56,226 L55,225 Z M73,40 L72,41 L71,41 L71,45 L72,46 L73,46 L74,47 L99,47 L100,46 L101,46 L102,45 L102,41 L101,41 L100,40 Z M31,21 L30,22 L28,22 L26,24 L25,24 L22,27 L22,28 L21,29 L21,30 L20,31 L20,34 L19,35 L19,115 L20,116 L20,117 L22,119 L26,119 L28,117 L28,116 L29,115 L29,34 L32,31 L139,31 L142,34 L142,111 L139,114 L138,114 L137,115 L134,115 L133,116 L129,116 L128,117 L124,117 L123,118 L118,118 L117,119 L113,119 L112,120 L108,120 L107,121 L103,121 L102,122 L97,122 L96,123 L92,123 L91,124 L87,124 L86,125 L82,125 L81,126 L76,126 L75,127 L71,127 L70,128 L66,128 L65,129 L60,129 L59,130 L55,130 L54,131 L50,131 L49,132 L45,132 L44,133 L39,133 L38,134 L34,134 L33,135 L30,135 L29,136 L28,136 L27,137 L26,137 L22,141 L22,142 L21,143 L21,144 L20,145 L20,149 L19,150 L19,202 L20,203 L20,206 L21,207 L21,208 L22,209 L22,210 L26,214 L27,214 L28,215 L29,215 L30,216 L141,216 L142,215 L143,215 L144,214 L145,214 L149,210 L149,209 L150,208 L150,207 L151,206 L151,149 L152,148 L152,146 L155,143 L156,143 L157,142 L159,142 L160,141 L161,141 L162,140 L164,140 L165,139 L167,139 L168,138 L170,138 L171,137 L172,137 L173,136 L175,136 L176,135 L178,135 L179,134 L180,134 L182,132 L182,128 L179,125 L177,125 L176,126 L174,126 L173,127 L171,127 L170,128 L169,128 L168,129 L166,129 L165,130 L163,130 L162,131 L160,131 L159,132 L158,132 L157,133 L155,133 L154,134 L152,134 L151,135 L150,135 L149,136 L148,136 L145,139 L145,140 L144,141 L144,142 L143,143 L143,144 L141,146 L136,146 L135,147 L130,147 L129,148 L124,148 L123,149 L118,149 L117,150 L112,150 L111,151 L106,151 L105,152 L100,152 L99,153 L93,153 L92,154 L87,154 L86,155 L81,155 L80,156 L75,156 L74,157 L69,157 L68,158 L63,158 L62,159 L57,159 L56,160 L51,160 L50,161 L45,161 L44,162 L39,162 L38,163 L33,163 L32,164 L30,164 L29,163 L29,148 L33,144 L36,144 L37,143 L41,143 L42,142 L46,142 L47,141 L51,141 L52,140 L56,140 L57,139 L62,139 L63,138 L67,138 L68,137 L72,137 L73,136 L77,136 L78,135 L82,135 L83,134 L88,134 L89,133 L93,133 L94,132 L98,132 L99,131 L103,131 L104,130 L109,130 L110,129 L114,129 L115,128 L119,128 L120,127 L124,127 L125,126 L130,126 L131,125 L135,125 L136,124 L139,124 L140,123 L142,123 L143,122 L144,122 L149,117 L149,116 L150,115 L150,114 L151,113 L151,31 L150,30 L150,29 L149,28 L149,27 L146,24 L145,24 L143,22 L141,22 L140,21 Z " 
    fill="none" 
    stroke="black" 
    stroke-width="1"
  />
</svg>
